<?xml version="1.0" encoding="utf-8"?>
<!-- Generator: Adobe Illustrator 24.2.1, SVG Export Plug-In . SVG Version: 6.00 Build 0)  -->
<svg version="1.1" id="Capa_1" xmlns="http://www.w3.org/2000/svg" xmlns:xlink="http://www.w3.org/1999/xlink" x="0px" y="0px"
	 viewBox="0 0 275.23 88.26" style="enable-background:new 0 0 275.23 88.26;" xml:space="preserve">
<style type="text/css">
	.st0{fill:#212121;}
	.st1{fill:#2A285E;}
	.st2{fill:#FFFFFF;}
	.st3{fill:none;}
	.st4{fill:url(#SVGID_1_);}
	.st5{fill:#313233;}
	.st6{fill-rule:evenodd;clip-rule:evenodd;fill:#FFFFFF;}
	.st7{clip-path:url(#SVGID_9_);}
	.st8{fill:url(#SVGID_12_);}
	.st9{fill:#4E4F9D;}
	.st10{fill:none;stroke:#313233;stroke-miterlimit:10;}
	.st11{fill:url(#SVGID_15_);}
	.st12{fill:#757576;}
	.st13{fill:#4D4F9D;}
	.st14{fill:#616160;}
	.st15{fill:#1D1D1C;}
	.st16{fill:url(#SVGID_16_);}
	.st17{fill:#E9E9E9;}
	.st18{fill:url(#SVGID_17_);}
</style>
<g>
	<g>
		<path class="st15" d="M28.22,54.36c-2.51-1.38-4.47-3.29-5.9-5.74c-1.43-2.45-2.14-5.18-2.14-8.21c0-3.03,0.71-5.77,2.14-8.21
			c1.42-2.45,3.4-4.36,5.92-5.74c2.52-1.38,5.34-2.07,8.46-2.07c2.34,0,4.5,0.39,6.48,1.17c1.98,0.78,3.66,1.92,5.04,3.42
			l-2.12,2.12c-2.46-2.49-5.57-3.74-9.32-3.74c-2.49,0-4.76,0.57-6.8,1.71c-2.04,1.14-3.64,2.7-4.79,4.68
			c-1.16,1.98-1.73,4.2-1.73,6.66c0,2.46,0.58,4.68,1.73,6.66c1.15,1.98,2.75,3.54,4.79,4.68c2.04,1.14,4.31,1.71,6.8,1.71
			c3.78,0,6.89-1.26,9.32-3.78l2.12,2.12c-1.38,1.5-3.07,2.65-5.06,3.44c-2,0.8-4.16,1.19-6.5,1.19
			C33.54,56.43,30.72,55.74,28.22,54.36z"/>
		<path class="st15" d="M57.14,54.83c-1.83-1.04-3.27-2.47-4.32-4.3c-1.05-1.83-1.58-3.9-1.58-6.21c0-2.31,0.52-4.38,1.58-6.21
			c1.05-1.83,2.49-3.26,4.32-4.28c1.83-1.02,3.89-1.53,6.17-1.53c2.28,0,4.34,0.51,6.17,1.53c1.83,1.02,3.26,2.45,4.3,4.28
			c1.04,1.83,1.55,3.9,1.55,6.21c0,2.31-0.52,4.38-1.55,6.21c-1.04,1.83-2.47,3.26-4.3,4.3c-1.83,1.04-3.89,1.55-6.17,1.55
			C61.02,56.39,58.97,55.87,57.14,54.83z M67.83,52.4c1.33-0.77,2.38-1.85,3.13-3.26c0.75-1.41,1.13-3.02,1.13-4.82
			c0-1.8-0.38-3.41-1.13-4.82c-0.75-1.41-1.79-2.5-3.13-3.26s-2.84-1.15-4.52-1.15c-1.68,0-3.19,0.38-4.52,1.15
			s-2.39,1.85-3.15,3.26c-0.77,1.41-1.15,3.02-1.15,4.82c0,1.8,0.38,3.41,1.15,4.82c0.76,1.41,1.82,2.5,3.15,3.26
			s2.84,1.15,4.52,1.15C64.98,53.55,66.49,53.17,67.83,52.4z"/>
		<path class="st15" d="M101.07,32.49L90.54,56.16h-3.29L76.76,32.49h3.33l8.87,20.16l8.96-20.16H101.07z"/>
		<path class="st15" d="M105.52,26.64c-0.45-0.45-0.68-0.99-0.68-1.62c0-0.6,0.23-1.13,0.68-1.58c0.45-0.45,1-0.68,1.67-0.68
			s1.22,0.22,1.67,0.65c0.45,0.44,0.68,0.95,0.68,1.55c0,0.66-0.23,1.22-0.68,1.67c-0.45,0.45-1,0.68-1.67,0.68
			S105.97,27.09,105.52,26.64z M105.57,32.49h3.2v23.68h-3.2V32.49z"/>
		<path class="st15" d="M133.07,34.62c1.65,1.55,2.48,3.83,2.48,6.86v14.67h-3.06v-3.69c-0.72,1.23-1.78,2.19-3.17,2.88
			c-1.4,0.69-3.05,1.04-4.97,1.04c-2.64,0-4.74-0.63-6.3-1.89c-1.56-1.26-2.34-2.93-2.34-5c0-2.01,0.73-3.63,2.18-4.86
			c1.46-1.23,3.77-1.85,6.95-1.85h7.52v-1.44c0-2.04-0.57-3.59-1.71-4.66c-1.14-1.06-2.81-1.6-5-1.6c-1.5,0-2.94,0.25-4.32,0.74
			s-2.57,1.18-3.56,2.05l-1.44-2.39c1.2-1.02,2.64-1.81,4.32-2.36c1.68-0.55,3.45-0.83,5.31-0.83
			C129.05,32.31,131.42,33.08,133.07,34.62z M129.47,52.63c1.29-0.82,2.25-2.02,2.88-3.58v-3.87h-7.43c-4.05,0-6.08,1.41-6.08,4.23
			c0,1.38,0.52,2.47,1.58,3.26c1.05,0.8,2.52,1.19,4.41,1.19C126.63,53.87,128.18,53.45,129.47,52.63z"/>
		<path class="st15" d="M137.91,64.74c-0.88-0.26-1.61-0.64-2.18-1.15l1.13-2.43c0.93,0.81,2.16,1.22,3.69,1.22
			c1.26,0,2.23-0.38,2.9-1.13c0.68-0.75,1.01-1.86,1.01-3.33V32.49h3.2v25.43c0,2.22-0.6,3.98-1.8,5.27
			c-1.2,1.29-2.91,1.94-5.13,1.94C139.73,65.12,138.79,64.99,137.91,64.74z M144.41,26.59c-0.45-0.45-0.67-0.99-0.67-1.62
			c0-0.6,0.22-1.13,0.67-1.58c0.45-0.45,1-0.68,1.67-0.68c0.66,0,1.21,0.22,1.67,0.65c0.45,0.44,0.67,0.95,0.67,1.55
			c0,0.66-0.22,1.22-0.67,1.67c-0.45,0.45-1.01,0.68-1.67,0.68C145.41,27.27,144.86,27.04,144.41,26.59z"/>
		<path class="st15" d="M177.18,45.31h-19.8c0.18,2.46,1.13,4.45,2.83,5.96c1.71,1.52,3.87,2.27,6.48,2.27
			c1.47,0,2.82-0.26,4.05-0.79c1.23-0.52,2.3-1.3,3.2-2.32l1.8,2.07c-1.05,1.26-2.36,2.22-3.94,2.88c-1.58,0.66-3.31,0.99-5.2,0.99
			c-2.43,0-4.58-0.52-6.46-1.55c-1.88-1.04-3.34-2.47-4.39-4.3c-1.05-1.83-1.58-3.9-1.58-6.21c0-2.31,0.5-4.38,1.51-6.21
			c1-1.83,2.39-3.26,4.14-4.28c1.76-1.02,3.73-1.53,5.92-1.53s4.16,0.51,5.9,1.53c1.74,1.02,3.11,2.44,4.1,4.25
			c0.99,1.82,1.49,3.89,1.49,6.23L177.18,45.31z M160.01,37.24c-1.55,1.46-2.42,3.35-2.63,5.69h16.79
			c-0.21-2.34-1.09-4.24-2.63-5.69c-1.55-1.46-3.47-2.18-5.78-2.18C163.46,35.05,161.55,35.78,160.01,37.24z"/>
		<path class="st15" d="M184.58,55.55c-1.76-0.55-3.13-1.25-4.12-2.09l1.44-2.52c0.99,0.78,2.24,1.42,3.74,1.91
			c1.5,0.5,3.06,0.74,4.68,0.74c2.16,0,3.76-0.34,4.79-1.01c1.04-0.68,1.55-1.63,1.55-2.86c0-0.87-0.29-1.55-0.86-2.05
			c-0.57-0.5-1.29-0.87-2.16-1.13c-0.87-0.25-2.03-0.5-3.47-0.74c-1.92-0.36-3.47-0.73-4.64-1.1c-1.17-0.38-2.17-1.01-2.99-1.91
			c-0.83-0.9-1.24-2.15-1.24-3.74c0-1.98,0.83-3.6,2.48-4.86c1.65-1.26,3.95-1.89,6.89-1.89c1.53,0,3.06,0.2,4.59,0.61
			c1.53,0.41,2.79,0.94,3.78,1.6l-1.39,2.57c-1.95-1.35-4.28-2.03-6.98-2.03c-2.04,0-3.58,0.36-4.61,1.08
			c-1.04,0.72-1.55,1.67-1.55,2.84c0,0.9,0.29,1.62,0.88,2.16s1.31,0.94,2.18,1.19c0.87,0.26,2.07,0.52,3.6,0.79
			c1.89,0.36,3.41,0.72,4.55,1.08c1.14,0.36,2.12,0.98,2.93,1.85c0.81,0.87,1.21,2.07,1.21,3.6c0,2.07-0.86,3.71-2.59,4.93
			c-1.73,1.22-4.12,1.82-7.18,1.82C188.17,56.39,186.33,56.11,184.58,55.55z"/>
	</g>
	<g>
		<g>
			<path class="st15" d="M201.61,21.58h6.11c0.96,0,1.82,0.59,2.16,1.48l11.63,30.28l1.57-5.79h7.45L224.92,62h-7.09L201.61,21.58z"
				/>
		</g>
		<g>
			<path class="st15" d="M229.83,40.67l2.04,5.66h8.24c0.69,0,1.32,0.35,1.69,0.93l8.85,13.85c0.36,0.56,0.98,0.9,1.64,0.9h7.52
				l-10.97-16.15c0,0-0.77-1.21-1.84-1.19c0,0,9.2-2.9,9.2-11.76s-8.79-11.31-13.29-11.31c-4.5,0-19.56,0-19.56,0l1.91,5.66h17.58
				c0,0,5.93,0.68,5.93,6.13s-4.29,7.22-6.68,7.22S229.83,40.67,229.83,40.67z"/>
		</g>
	</g>
</g>
</svg>
