<?xml version="1.0" encoding="utf-8"?>
<!-- Generator: Adobe Illustrator 24.2.1, SVG Export Plug-In . SVG Version: 6.00 Build 0)  -->
<svg version="1.1" id="Capa_1" xmlns="http://www.w3.org/2000/svg" xmlns:xlink="http://www.w3.org/1999/xlink" x="0px" y="0px"
	 viewBox="0 0 189.16 55.74" style="enable-background:new 0 0 189.16 55.74;" xml:space="preserve">
<style type="text/css">
	.st0{fill:#212121;}
	.st1{fill:#2A285E;}
	.st2{fill:#FFFFFF;}
	.st3{fill:none;}
	.st4{fill:url(#SVGID_1_);}
	.st5{fill:#313233;}
	.st6{fill-rule:evenodd;clip-rule:evenodd;fill:#FFFFFF;}
	.st7{fill:url(#SVGID_16_);}
	.st8{fill:#4E4F9D;}
	.st9{fill:none;stroke:#313233;stroke-miterlimit:10;}
	.st10{fill:url(#SVGID_23_);}
</style>
<g>
	<g>
		<path class="st2" d="M19.56,37.08c-1.74-0.96-3.11-2.29-4.1-3.99c-0.99-1.7-1.49-3.6-1.49-5.71c0-2.11,0.5-4.01,1.49-5.71
			c0.99-1.7,2.36-3.03,4.11-3.99c1.75-0.96,3.71-1.44,5.88-1.44c1.63,0,3.13,0.27,4.5,0.81c1.38,0.54,2.54,1.33,3.5,2.38l-1.47,1.47
			c-1.71-1.73-3.87-2.6-6.47-2.6c-1.73,0-3.3,0.4-4.72,1.19c-1.42,0.79-2.53,1.88-3.33,3.25s-1.2,2.92-1.2,4.63
			c0,1.71,0.4,3.25,1.2,4.63s1.91,2.46,3.33,3.25c1.42,0.79,2.99,1.19,4.72,1.19c2.63,0,4.78-0.88,6.47-2.63l1.47,1.47
			c-0.96,1.04-2.13,1.84-3.52,2.39c-1.39,0.55-2.89,0.83-4.52,0.83C23.25,38.52,21.3,38.04,19.56,37.08z"/>
		<path class="st2" d="M39.65,37.41c-1.27-0.72-2.27-1.71-3-2.99c-0.73-1.27-1.09-2.71-1.09-4.32c0-1.6,0.36-3.04,1.09-4.31
			c0.73-1.27,1.73-2.26,3-2.97c1.27-0.71,2.7-1.06,4.28-1.06c1.58,0,3.01,0.35,4.28,1.06c1.27,0.71,2.27,1.7,2.99,2.97
			c0.72,1.27,1.08,2.71,1.08,4.31c0,1.61-0.36,3.04-1.08,4.32c-0.72,1.27-1.71,2.27-2.99,2.99s-2.7,1.08-4.28,1.08
			C42.35,38.49,40.92,38.13,39.65,37.41z M47.08,35.72c0.93-0.53,1.65-1.29,2.17-2.27c0.52-0.98,0.78-2.09,0.78-3.35
			c0-1.25-0.26-2.37-0.78-3.35c-0.52-0.98-1.25-1.74-2.17-2.27c-0.93-0.53-1.98-0.8-3.14-0.8c-1.17,0-2.21,0.27-3.14,0.8
			s-1.66,1.29-2.19,2.27c-0.53,0.98-0.8,2.09-0.8,3.35c0,1.25,0.27,2.37,0.8,3.35c0.53,0.98,1.26,1.74,2.19,2.27s1.97,0.8,3.14,0.8
			C45.1,36.52,46.15,36.25,47.08,35.72z"/>
		<path class="st2" d="M70.17,21.88l-7.32,16.45h-2.28l-7.29-16.45h2.31l6.16,14.01l6.22-14.01H70.17z"/>
		<path class="st2" d="M73.26,17.82c-0.31-0.31-0.47-0.69-0.47-1.13c0-0.42,0.16-0.78,0.47-1.09s0.7-0.47,1.16-0.47
			c0.46,0,0.84,0.15,1.16,0.45c0.31,0.3,0.47,0.66,0.47,1.08c0,0.46-0.16,0.84-0.47,1.16c-0.31,0.31-0.7,0.47-1.16,0.47
			C73.96,18.29,73.58,18.13,73.26,17.82z M73.29,21.88h2.22v16.45h-2.22V21.88z"/>
		<path class="st2" d="M92.4,23.37c1.15,1.07,1.72,2.66,1.72,4.77v10.19h-2.13v-2.56c-0.5,0.85-1.24,1.52-2.2,2
			c-0.97,0.48-2.12,0.72-3.46,0.72c-1.83,0-3.29-0.44-4.38-1.31s-1.63-2.03-1.63-3.47c0-1.4,0.5-2.52,1.52-3.38
			c1.01-0.85,2.62-1.28,4.83-1.28h5.22v-1c0-1.42-0.4-2.5-1.19-3.24c-0.79-0.74-1.95-1.11-3.47-1.11c-1.04,0-2.04,0.17-3,0.52
			c-0.96,0.34-1.78,0.82-2.47,1.42l-1-1.66c0.83-0.71,1.83-1.26,3-1.64c1.17-0.39,2.4-0.58,3.69-0.58
			C89.61,21.76,91.25,22.3,92.4,23.37z M89.9,35.88c0.9-0.57,1.56-1.4,2-2.49V30.7h-5.16c-2.81,0-4.22,0.98-4.22,2.94
			c0,0.96,0.37,1.71,1.09,2.27c0.73,0.55,1.75,0.83,3.06,0.83C87.93,36.74,89,36.45,89.9,35.88z"/>
		<path class="st2" d="M95.76,44.29c-0.61-0.18-1.12-0.44-1.52-0.8l0.78-1.69c0.65,0.56,1.5,0.84,2.56,0.84
			c0.88,0,1.55-0.26,2.02-0.78c0.47-0.52,0.7-1.29,0.7-2.31V21.88h2.22v17.67c0,1.54-0.42,2.76-1.25,3.66
			c-0.83,0.9-2.02,1.34-3.57,1.34C97.03,44.55,96.38,44.46,95.76,44.29z M100.28,17.79c-0.31-0.31-0.47-0.69-0.47-1.13
			c0-0.42,0.16-0.78,0.47-1.09s0.7-0.47,1.16-0.47c0.46,0,0.84,0.15,1.16,0.45c0.31,0.3,0.47,0.66,0.47,1.08
			c0,0.46-0.16,0.84-0.47,1.16s-0.7,0.47-1.16,0.47C100.98,18.26,100.59,18.1,100.28,17.79z"/>
		<path class="st2" d="M123.04,30.79h-13.76c0.13,1.71,0.78,3.09,1.97,4.14c1.19,1.05,2.69,1.58,4.5,1.58
			c1.02,0,1.96-0.18,2.81-0.55c0.85-0.36,1.59-0.9,2.22-1.61l1.25,1.44c-0.73,0.88-1.64,1.54-2.74,2c-1.09,0.46-2.3,0.69-3.61,0.69
			c-1.69,0-3.18-0.36-4.49-1.08s-2.32-1.71-3.05-2.99c-0.73-1.27-1.09-2.71-1.09-4.32c0-1.6,0.35-3.04,1.05-4.31
			c0.7-1.27,1.66-2.26,2.88-2.97c1.22-0.71,2.59-1.06,4.11-1.06c1.52,0,2.89,0.35,4.1,1.06c1.21,0.71,2.16,1.69,2.85,2.95
			c0.69,1.26,1.03,2.7,1.03,4.33L123.04,30.79z M111.11,25.18c-1.07,1.01-1.68,2.33-1.83,3.96h11.66c-0.15-1.63-0.76-2.94-1.83-3.96
			c-1.07-1.01-2.41-1.52-4.02-1.52C113.51,23.67,112.19,24.17,111.11,25.18z"/>
		<path class="st2" d="M128.18,37.91c-1.22-0.39-2.17-0.87-2.86-1.45l1-1.75c0.69,0.54,1.55,0.99,2.6,1.33
			c1.04,0.34,2.13,0.52,3.25,0.52c1.5,0,2.61-0.23,3.33-0.7c0.72-0.47,1.08-1.13,1.08-1.99c0-0.6-0.2-1.08-0.59-1.42
			c-0.4-0.34-0.9-0.6-1.5-0.78c-0.6-0.18-1.41-0.35-2.41-0.52c-1.33-0.25-2.41-0.51-3.22-0.77c-0.81-0.26-1.51-0.7-2.08-1.33
			c-0.57-0.63-0.86-1.49-0.86-2.6c0-1.38,0.57-2.5,1.72-3.38s2.74-1.31,4.78-1.31c1.06,0,2.13,0.14,3.19,0.42
			c1.06,0.28,1.94,0.65,2.63,1.11l-0.97,1.78c-1.36-0.94-2.97-1.41-4.85-1.41c-1.42,0-2.49,0.25-3.21,0.75
			c-0.72,0.5-1.08,1.16-1.08,1.97c0,0.63,0.2,1.13,0.61,1.5c0.41,0.38,0.91,0.65,1.52,0.83c0.6,0.18,1.44,0.36,2.5,0.55
			c1.31,0.25,2.37,0.5,3.16,0.75c0.79,0.25,1.47,0.68,2.03,1.28c0.56,0.6,0.84,1.44,0.84,2.5c0,1.44-0.6,2.58-1.8,3.42
			c-1.2,0.84-2.86,1.27-4.99,1.27C130.68,38.49,129.4,38.29,128.18,37.91z"/>
	</g>
	<g>
		<g>
			<path class="st2" d="M140.02,14.31h4.25c0.67,0,1.26,0.41,1.5,1.03l8.08,21.03l1.09-4.02h5.18l-3.9,10.04h-4.92L140.02,14.31z"/>
		</g>
		<g>
			<path class="st2" d="M159.62,27.57l1.42,3.93h5.72c0.48,0,0.92,0.24,1.18,0.64l6.15,9.62c0.25,0.39,0.68,0.63,1.14,0.63h5.22
				l-7.62-11.22c0,0-0.53-0.84-1.28-0.83c0,0,6.39-2.01,6.39-8.17s-6.11-7.86-9.23-7.86c-3.12,0-13.59,0-13.59,0l1.33,3.93h12.22
				c0,0,4.12,0.47,4.12,4.26s-2.98,5.02-4.64,5.02S159.62,27.57,159.62,27.57z"/>
		</g>
	</g>
</g>
</svg>
