<?xml version="1.0" encoding="utf-8"?>
<!-- Generator: Adobe Illustrator 24.2.1, SVG Export Plug-In . SVG Version: 6.00 Build 0)  -->
<svg version="1.1" id="Capa_1" xmlns="http://www.w3.org/2000/svg" xmlns:xlink="http://www.w3.org/1999/xlink" x="0px" y="0px"
	 viewBox="0 0 441.29 150.19" style="enable-background:new 0 0 441.29 150.19;" xml:space="preserve">
<style type="text/css">
	.st0{fill:#212121;}
	.st1{fill:#2A285E;}
	.st2{fill:#FFFFFF;}
	.st3{fill:none;}
	.st4{fill:url(#SVGID_1_);}
	.st5{fill:#313233;}
	.st6{fill-rule:evenodd;clip-rule:evenodd;fill:#FFFFFF;}
	.st7{clip-path:url(#SVGID_15_);}
	.st8{fill:url(#SVGID_18_);}
	.st9{fill:#4E4F9D;}
	.st10{fill:none;stroke:#313233;stroke-miterlimit:10;}
	.st11{fill:url(#SVGID_25_);}
	.st12{fill:url(#SVGID_26_);}
</style>
<g id="layer1_1_" transform="translate(301.27158,-75.603694)">
	<g>
		<path id="rect840_10_" class="st6" d="M-153.65,138.88c-3.59,0-6.49,2.91-6.49,6.49v11.08c0,2.03-1.64,3.67-3.67,3.67h-12.5v2.75
			h14.86c3.59,0,6.49-2.91,6.49-6.49V145.3c0-2.03,1.64-3.67,3.67-3.67l12.73,0v-2.75H-153.65z"/>
		<path id="path916_10_" class="st6" d="M-209.66,138.88v2.75h26.1c2.08,0,3.77,1.69,3.77,3.77c0,2.08-1.69,3.77-3.77,3.77h-19.61
			c-3.59,0-6.49,2.91-6.49,6.49v7.21h5.19v-7.29c0-2.03,1.64-3.67,3.67-3.67h19.68c3.6,0,6.52-2.92,6.52-6.52
			c0-3.6-2.92-6.52-6.52-6.52H-209.66z"/>
		<path id="path929_10_" class="st6" d="M-133.55,138.88v8.96c0,2.25,1.83,4.08,4.08,4.08h21.72c2.27,0,4.1,1.84,4.1,4.1
			c0,2.27-1.84,4.1-4.1,4.1h-25.8v2.75h28.24c3.78,0,6.85-3.07,6.85-6.85c0-3.78-3.07-6.85-6.85-6.85h-21.41
			c-0.9,0-1.64-0.73-1.64-1.64v-5.9h28.96v-2.75H-133.55z"/>
		<path id="path72_10_" class="st2" d="M-254.88,131.08v36.96l8.37,2.66V139.7c0-1.45,0.65-2.42,1.69-2.08
			c1.37,0.38,1.63,1.71,1.63,3.17v12.38c5.22,2.52,9.32,0,9.32-6.65c0-6.82-2.4-9.84-9.48-12.28
			C-246.14,133.3-251.32,131.74-254.88,131.08"/>
		<path id="path76_10_" class="st2" d="M-244.93,165.3l13.46-4.8c1.53-0.55,1.76-1.32,0.52-1.73c-1.24-0.4-3.48-0.29-5.01,0.26
			l-8.97,3.16v-5.03l0.52-0.17c0,0,2.59-0.92,6.23-1.32c3.64-0.4,8.11,0.05,11.6,1.38c3.95,1.25,4.39,3.08,3.39,4.35
			c-1.01,1.27-3.46,2.17-3.46,2.17l-18.28,6.57V165.3z"/>
		<path id="path80_10_" class="st2" d="M-270.22,164.79c-4.05-1.14-4.73-3.51-2.88-4.88c1.71-1.27,4.61-2.22,4.61-2.22l11.99-4.26
			v4.86l-8.63,3.09c-1.53,0.55-1.76,1.32-0.52,1.72c1.24,0.41,3.48,0.29,5.01-0.26l4.14-1.5v4.35c-0.26,0.04-0.56,0.09-0.82,0.13
			C-261.47,166.51-265.88,166.23-270.22,164.79"/>
	</g>
</g>
<g id="g26_1_" transform="matrix(0.44444299,0,0,0.44444299,-0.25427334,-0.06421408)">
	<g id="g6_1_">
		<path id="path2_1_" class="st2" d="M840.25,60.32c-9.17,0-16.75,2.49-23.66,6.68c-0.11,0-0.11,0.11-0.11,0.23s0.11,0.11,0.23,0.11
			c8.83-1.92,22.19,5.66,23.43,6.45h0.11h0.11c1.25-0.79,14.6-8.38,23.43-6.45c0.11,0,0.23,0,0.23-0.11s0-0.23-0.11-0.23
			C857,62.81,849.42,60.32,840.25,60.32z M870.61,73.08c-2.24,0.13-7.47,1.87-17.91,12.14l-0.11,0.11c0,0,0,0.11,0.11,0.11
			c9.17,10.87,26.83,36.79,23.43,47.54v0.23c0.11,0,0.23,0,0.23-0.11c5.77-7.58,9.28-17.21,9.28-27.51c0-12.56-5.09-24-13.47-32.26
			c-0.11-0.11-0.11-0.11-0.23-0.11C871.77,73.17,871.36,73.04,870.61,73.08z M809.84,73.13c-0.76-0.03-1.2,0.13-1.4,0.21
			c-0.11,0-0.11,0.11-0.23,0.11c-8.26,8.26-13.36,19.7-13.36,32.26c0,10.3,3.51,19.92,9.28,27.51c0,0.11,0.11,0.11,0.23,0.11
			s0.11-0.11,0-0.23c-3.51-10.75,14.26-36.68,23.43-47.54l0.11-0.11c0-0.11,0-0.11-0.11-0.11
			C817.35,74.98,812.13,73.22,809.84,73.13z M840.25,96.77c0,0-0.11,0-0.11,0.11c-13.58,10.3-36.9,35.88-29.77,43.13
			c7.92,7.02,18.45,11.21,29.88,11.21s21.85-4.19,29.88-11.21c7.02-7.24-16.19-32.83-29.77-43.13
			C840.36,96.77,840.25,96.77,840.25,96.77z M867.64,164.13c-3.96,0-7.7,0.68-10.87,1.92c-3.28,1.36-6.11,3.28-8.49,5.89
			c-2.49,2.6-4.3,5.77-5.55,9.17s-1.81,7.36-1.81,11.55s0.57,8.15,1.81,11.55c1.25,3.4,3.06,6.45,5.55,9.06s5.32,4.53,8.49,5.89
			c3.17,1.25,6.9,1.92,10.87,1.92c4.08,0,7.7-0.57,10.87-1.92c3.17-1.25,6-3.28,8.49-5.89c2.38-2.6,4.19-5.66,5.43-9.06
			s1.81-7.36,1.81-11.55c0-4.3-0.68-8.15-1.81-11.55c-1.13-3.4-3.06-6.57-5.43-9.17s-5.32-4.64-8.49-5.89
			C875.23,164.81,871.6,164.13,867.64,164.13z M740.97,165.37l18.9,26.15l-20.6,28.41h9.28l16.08-22.07l15.96,22.07h9.28
			l-20.6-28.41l19.02-26.15h-9.28l-14.38,19.81l-14.38-19.81H740.97z M794.29,165.37v23.21h-7.13l-5.09,7.02h12.22v24.34h25.47
			c5.89,0,10.41-1.47,13.58-4.19c3.17-2.72,4.76-6.57,4.76-11.32c0-2.94-0.79-5.66-2.49-7.81c-1.58-2.15-3.85-3.96-6.9-5.09
			c4.75-2.6,7.13-6.68,7.13-11.89c0-4.19-1.47-7.7-4.42-10.3c-2.94-2.6-7.13-3.96-12.68-3.96H794.29z M892.21,165.37l19.02,26.15
			l-20.6,28.41h9.28l15.96-22.07l16.07,22.07h9.28l-20.72-28.41l19.02-26.15h-9.28l-14.38,19.81l-14.38-19.81H892.21z M867.64,171.6
			c5.43,0,9.85,1.92,13.13,5.66c3.28,3.74,4.87,8.94,4.87,15.39s-1.59,11.55-4.87,15.28c-3.28,3.74-7.7,5.66-13.13,5.66
			c-5.55,0-9.85-1.92-13.13-5.66c-3.28-3.74-4.98-8.83-4.98-15.28s1.7-11.55,4.98-15.39C857.79,173.52,862.21,171.6,867.64,171.6z
			 M802.55,172.5h15.62c3.06,0,5.43,0.68,7.02,2.04c1.7,1.36,2.49,3.28,2.49,5.66c0,2.83-0.79,4.98-2.38,6.34
			c-1.58,1.47-3.96,2.15-7.13,2.15h-15.62V172.5z M802.55,195.59h16.87c3.4,0,6,0.68,7.7,2.15c1.7,1.36,2.6,3.62,2.6,6.45
			c0,2.72-0.91,4.87-2.72,6.34c-1.81,1.36-4.42,2.15-7.7,2.15h-16.75V195.59z M762.48,241.21c-2.38,0-4.3,0.57-5.66,1.59
			c-1.36,1.02-2.04,2.49-2.04,4.3c0,1.81,0.57,3.17,1.7,4.19c1.13,1.02,2.83,1.81,5.09,2.26l1.81,0.45
			c1.81,0.45,3.17,0.91,3.85,1.36c0.68,0.57,1.02,1.25,1.02,2.15c0,1.13-0.45,2.04-1.24,2.71c-0.91,0.57-2.15,0.91-3.74,0.91
			c-1.92,0-3.39-0.45-4.41-1.24c-1.02-0.79-1.47-2.04-1.47-3.62h-3.17c0,2.49,0.79,4.42,2.49,5.77c1.58,1.36,3.85,1.92,6.68,1.92
			c2.6,0,4.75-0.57,6.23-1.7c1.47-1.13,2.26-2.83,2.26-4.75c0-1.7-0.57-3.06-1.7-4.08s-2.94-1.81-5.43-2.26l-1.92-0.45
			c-1.81-0.34-3.06-0.91-3.74-1.36c-0.68-0.45-1.02-1.25-1.02-2.26s0.34-1.7,1.13-2.26c0.79-0.57,1.81-0.79,3.28-0.79
			c1.81,0,3.17,0.34,3.96,1.02c0.79,0.68,1.24,1.7,1.36,3.06h3.4c0-2.15-0.79-3.85-2.26-5.09S765.31,241.21,762.48,241.21z
			 M879.75,241.21c-2.38,0-4.3,0.57-5.66,1.59c-1.36,1.02-2.04,2.49-2.04,4.3c0,1.81,0.57,3.17,1.7,4.19
			c1.13,1.02,2.83,1.81,5.09,2.26l1.81,0.45c1.81,0.45,3.17,0.91,3.85,1.36c0.68,0.57,1.02,1.25,1.02,2.15
			c0,1.13-0.45,2.04-1.24,2.71c-0.91,0.57-2.15,0.91-3.73,0.91c-1.92,0-3.4-0.45-4.42-1.24c-1.02-0.79-1.47-2.04-1.47-3.62h-3.28
			c0,2.49,0.79,4.42,2.49,5.77c1.58,1.36,3.85,1.92,6.68,1.92c2.6,0,4.75-0.57,6.23-1.7c1.47-1.13,2.26-2.83,2.26-4.75
			c0.23-1.7-0.34-3.06-1.47-4.08s-2.94-1.81-5.43-2.26l-1.92-0.45c-1.81-0.34-3.06-0.91-3.74-1.36c-0.68-0.45-1.02-1.25-1.02-2.26
			s0.34-1.7,1.13-2.26c0.79-0.57,1.81-0.79,3.28-0.79c1.81,0,3.17,0.34,3.96,1.02c0.79,0.68,1.25,1.7,1.36,3.06h3.28
			c0-2.15-0.79-3.85-2.26-5.09C884.74,241.78,882.58,241.21,879.75,241.21z M780.82,241.78v21.85h15.51v-3.06H784.1v-6.68h10.87
			v-2.83H784.1v-6.34h12.23v-2.94H780.82z M805.84,241.78v21.85h3.28v-8.94h6.34c1.25,0,2.15,0.34,2.71,0.9
			c0.57,0.57,0.91,1.58,0.91,2.94l0.11,2.38c0,1.25,0.23,2.15,0.68,2.83h3.4c-0.34-0.79-0.57-1.7-0.68-2.83l-0.23-3.4
			c0-1.25-0.34-2.15-0.79-2.94c-0.45-0.68-1.25-1.24-2.26-1.47c1.13-0.34,2.04-1.02,2.6-1.93c0.68-0.91,1.02-2.04,1.02-3.4
			c0-1.92-0.68-3.39-2.04-4.41c-1.36-1.02-3.17-1.59-5.55-1.59H805.84z M832.78,241.78v21.85h3.28v-21.85H832.78z M847.04,241.78
			v21.85h15.62v-3.06h-12.34v-6.68h10.87v-2.83h-10.87v-6.34h12.34v-2.94H847.04z M906.47,241.78l7.59,10.41l-8.26,11.43h3.74
			l6.34-8.83l6.45,8.83h3.74l-8.26-11.43l7.59-10.41h-3.74l-5.77,7.92l-5.66-7.92H906.47z M809.35,244.61h5.89
			c1.36,0,2.49,0.34,3.17,0.9c0.68,0.57,1.13,1.47,1.13,2.6s-0.34,2.15-1.02,2.72c-0.68,0.68-1.7,1.02-2.94,1.02h-6.23V244.61z"/>
	</g>
</g>
</svg>
